# xmcd
#
# Track frame offsets:
#	150
#	18088
#	34912
#	52909
#	74414
#	76373
#	78018
#	79738
#	81358
#	83040
#	84532
#	86105
#	87689
#	89258
#	90734
#	92586
#	94214
#	95760
#	97429
#	99251
#	100914
#	102758
#	104341
#	105891
#	107470
#	113351
#	118005
#	122204
#	125590
#	129176
#	133193
#	137617
#	139999
#	142794
#	145230
#	150154
#	153081
#	157851
#	162518
#	164107
#	165843
#	167030
#	168417
#	170092
#	171093
#	172880
#	174565
#	175995
#	177031
#	178608
#	180191
#	182447
#	184181
#	185658
#	187264
#	188737
#	189961
#	191495
#	193136
#	200788
#	203525
#	206659
#	211323
#	216837
#	221005
#	223656
#	225478
#	226520
#	239644
#	244010
#	246328
#	249550
#	252391
#
# Disc length: 3403 seconds
#
# Revision: 1
# Processed by: cddbd v1.5.1PL0 Copyright (c) Steve Scherf et al.
# Submitted via: CDex 1.50Beta5
#
DISCID=e50d4949
DTITLE=別冊宝島 - 「耳から鍛える」
DYEAR=1900
DGENRE=
TTITLE0=1
TTITLE1=2
TTITLE2=3
TTITLE3=4
TTITLE4=5
TTITLE5=6
TTITLE6=7
TTITLE7=8
TTITLE8=9
TTITLE9=10
TTITLE10=11
TTITLE11=12
TTITLE12=13
TTITLE13=14
TTITLE14=15
TTITLE15=16
TTITLE16=17
TTITLE17=18
TTITLE18=19
TTITLE19=20
TTITLE20=21
TTITLE21=22
TTITLE22=23
TTITLE23=24
TTITLE24=25
TTITLE25=26
TTITLE26=27
TTITLE27=28
TTITLE28=29
TTITLE29=30
TTITLE30=31
TTITLE31=32
TTITLE32=33
TTITLE33=34
TTITLE34=35
TTITLE35=36
TTITLE36=37
TTITLE37=38
TTITLE38=39
TTITLE39=40
TTITLE40=41
TTITLE41=42
TTITLE42=43
TTITLE43=44
TTITLE44=45
TTITLE45=46
TTITLE46=47
TTITLE47=48
TTITLE48=49
TTITLE49=50
TTITLE50=51
TTITLE51=52
TTITLE52=53
TTITLE53=54
TTITLE54=55
TTITLE55=56
TTITLE56=57
TTITLE57=58
TTITLE58=59
TTITLE59=60
TTITLE60=61
TTITLE61=62
TTITLE62=63
TTITLE63=64
TTITLE64=65
TTITLE65=66
TTITLE66=67
TTITLE67=68
TTITLE68=69
TTITLE69=70
TTITLE70=71
TTITLE71=72
TTITLE72=73
EXTD=
EXTT0=
EXTT1=
EXTT2=
EXTT3=
EXTT4=
EXTT5=
EXTT6=
EXTT7=
EXTT8=
EXTT9=
EXTT10=
EXTT11=
EXTT12=
EXTT13=
EXTT14=
EXTT15=
EXTT16=
EXTT17=
EXTT18=
EXTT19=
EXTT20=
EXTT21=
EXTT22=
EXTT23=
EXTT24=
EXTT25=
EXTT26=
EXTT27=
EXTT28=
EXTT29=
EXTT30=
EXTT31=
EXTT32=
EXTT33=
EXTT34=
EXTT35=
EXTT36=
EXTT37=
EXTT38=
EXTT39=
EXTT40=
EXTT41=
EXTT42=
EXTT43=
EXTT44=
EXTT45=
EXTT46=
EXTT47=
EXTT48=
EXTT49=
EXTT50=
EXTT51=
EXTT52=
EXTT53=
EXTT54=
EXTT55=
EXTT56=
EXTT57=
EXTT58=
EXTT59=
EXTT60=
EXTT61=
EXTT62=
EXTT63=
EXTT64=
EXTT65=
EXTT66=
EXTT67=
EXTT68=
EXTT69=
EXTT70=
EXTT71=
EXTT72=
PLAYORDER=
